<svg xmlns="http://www.w3.org/2000/svg" width="24" height="24" viewBox="0 0 24 24" fill="none">
  <path fill-rule="evenodd" clip-rule="evenodd" d="M5.39969 7.19986C4.40369 7.19986 3.59969 6.39583 3.59969 5.3998C3.59969 4.40377 4.40369 3.59975 5.39969 3.59975C6.39689 3.59975 7.19969 4.40377 7.19969 5.3998C7.19969 6.39583 6.39689 7.19986 5.39969 7.19986ZM12.493 0.695533C12.061 0.26352 11.461 -0.000488281 10.7998 -0.000488281H2.39979C1.08099 -0.000488281 -0.000213623 1.07954 -0.000213623 2.39958V10.7998C-0.000213623 11.4599 0.264986 12.0599 0.708986 12.5039L11.509 23.3042C11.941 23.7362 12.541 24.0002 13.1998 24.0002C13.861 24.0002 14.461 23.7362 14.893 23.2922L23.293 14.892C23.737 14.4599 23.9998 13.8599 23.9998 13.1999C23.9998 12.5399 23.725 11.9279 23.293 11.4959L12.493 0.695533Z" fill="#242424"/>
</svg>
