<svg width="70" height="70" viewBox="0 0 70 70" fill="none" xmlns="http://www.w3.org/2000/svg">
<path fill-rule="evenodd" clip-rule="evenodd" d="M17.5 47.8345V10.9445L30.625 18.8195V13.7161L19.7509 7.19294C19.0291 6.75982 18.2591 6.56294 17.5088 6.56294C15.225 6.56294 13.125 8.38513 13.125 10.9445V47.8345C13.125 49.3723 13.93 50.7964 15.2491 51.5883L30.625 60.8129V55.7117L17.5 47.8345Z" fill="black"/>
<path fill-rule="evenodd" clip-rule="evenodd" d="M52.4916 6.5625C51.7413 6.5625 50.9713 6.75938 50.2494 7.1925L35.0004 16.3428V63.4375L54.7513 51.5878C56.0704 50.7959 56.8754 49.3719 56.8754 47.8341V10.9441C56.8754 8.38469 54.7754 6.5625 52.4916 6.5625" fill="black"/>
</svg>
