<svg width="70" height="70" viewBox="0 0 70 70" fill="none" xmlns="http://www.w3.org/2000/svg">
<path d="M56.875 10.9375H52.5V15.3125H56.875V61.25H13.125V15.3125H17.5V10.9375H13.125C11.9647 10.9375 10.8519 11.3984 10.0314 12.2189C9.21094 13.0394 8.75 14.1522 8.75 15.3125V61.25C8.75 62.4103 9.21094 63.5231 10.0314 64.3436C10.8519 65.1641 11.9647 65.625 13.125 65.625H56.875C58.0353 65.625 59.1481 65.1641 59.9686 64.3436C60.7891 63.5231 61.25 62.4103 61.25 61.25V15.3125C61.25 14.1522 60.7891 13.0394 59.9686 12.2189C59.1481 11.3984 58.0353 10.9375 56.875 10.9375V10.9375Z" fill="#333333"/>
<path d="M21.875 21.875H48.125V8.75C48.125 7.58968 47.6641 6.47688 46.8436 5.65641C46.0231 4.83594 44.9103 4.375 43.75 4.375H26.25C25.0897 4.375 23.9769 4.83594 23.1564 5.65641C22.3359 6.47688 21.875 7.58968 21.875 8.75V21.875ZM26.25 8.75H43.75V17.5H26.25V8.75Z" fill="#333333"/>
<path d="M48.125 30.625H21.875V35H48.125V30.625Z" fill="#333333"/>
<path d="M48.125 39.375H21.875V43.75H48.125V39.375Z" fill="#333333"/>
<path d="M48.125 48.125H21.875V52.5H48.125V48.125Z" fill="#333333"/>
</svg>
