<svg width="70" height="70" viewBox="0 0 70 70" fill="none" xmlns="http://www.w3.org/2000/svg">
<path fill-rule="evenodd" clip-rule="evenodd" d="M35 45.9375C33.1888 45.9375 31.7188 47.4075 31.7188 49.2188C31.7188 51.03 33.1888 52.5 35 52.5C36.8113 52.5 38.2813 51.03 38.2813 49.2188C38.2813 47.4075 36.8113 45.9375 35 45.9375" fill="black"/>
<path fill-rule="evenodd" clip-rule="evenodd" d="M35 61.25C20.5253 61.25 8.75 49.4747 8.75 35C8.75 20.5253 20.5253 8.75 35 8.75C49.4747 8.75 61.25 20.5253 61.25 35C61.25 49.4747 49.4747 61.25 35 61.25M35 4.375C18.0863 4.375 4.375 18.0863 4.375 35C4.375 51.9138 18.0863 65.625 35 65.625C51.9138 65.625 65.625 51.9138 65.625 35C65.625 18.0863 51.9138 4.375 35 4.375" fill="black"/>
<path fill-rule="evenodd" clip-rule="evenodd" d="M35 17.5C29.5641 17.5 25.1562 21.9078 25.1562 27.3438V28.4375H29.5313V27.3438C29.5313 24.3272 31.9834 21.875 35 21.875C38.0166 21.875 40.4688 24.3272 40.4688 27.3438C40.4688 30.3603 38.0166 32.8125 35 32.8125C33.7903 32.8125 32.8125 33.7903 32.8125 35V41.5625H37.1875V36.925C41.5669 35.9275 44.8438 32.0272 44.8438 27.3438C44.8438 21.9078 40.4359 17.5 35 17.5" fill="black"/>
</svg>
