<svg width="24" height="25" viewBox="0 0 24 25" fill="none" xmlns="http://www.w3.org/2000/svg">
<path fill-rule="evenodd" clip-rule="evenodd" d="M17.062 12.3043L17.6316 11.7362L21.0513 8.32195L16.4593 7.69219L15.6134 7.57488L15.2622 6.79694L13.3483 2.54682L11.4351 6.79694L11.0847 7.57488L10.2373 7.69219L5.64603 8.32195L9.01409 11.6847H6.8294L3.56534 8.42691C3.06909 7.93067 3.35387 7.07941 4.04692 6.98448L10.0273 6.16178L12.578 0.498554C12.7278 0.166694 13.038 -7.15256e-06 13.3483 -7.15256e-06C13.6593 -7.15256e-06 13.9695 0.166694 14.1192 0.498554L16.6699 6.16178L22.6496 6.98448C23.3426 7.07941 23.6282 7.93067 23.1312 8.42691L18.7221 12.8283L19.8272 19.0665C19.9252 19.6198 19.4861 20.0659 18.9937 20.0659C18.8548 20.0659 18.7105 20.0304 18.5739 19.9517L14 17.3226V15.542L14.1177 15.6097L18.0468 17.8679L17.2017 13.0976L17.062 12.3043Z" fill="white"/>
<path fill-rule="evenodd" clip-rule="evenodd" d="M10.6757 17.9347L11.0507 14.9347H5.18198L5.72723 17.9347H10.6757ZM1.50024 11.1847H4.50024L4.90899 13.4347H12.7502L12.0002 19.4347H4.50024L4.49949 19.4302L3.25224 12.6847H1.50024V11.1847ZM5.62494 20.9347C5.00319 20.9347 4.49994 21.4379 4.49994 22.0597C4.49994 22.6814 5.00319 23.1847 5.62494 23.1847C6.24669 23.1847 6.74994 22.6814 6.74994 22.0597C6.74994 21.4379 6.24669 20.9347 5.62494 20.9347ZM10.8749 20.9347C10.2532 20.9347 9.74994 21.4379 9.74994 22.0597C9.74994 22.6814 10.2532 23.1847 10.8749 23.1847C11.4967 23.1847 11.9999 22.6814 11.9999 22.0597C11.9999 21.4379 11.4967 20.9347 10.8749 20.9347Z" fill="white"/>
</svg>
