<svg width="25" height="25" viewBox="0 0 25 25" fill="none" xmlns="http://www.w3.org/2000/svg">
<path fill-rule="evenodd" clip-rule="evenodd" d="M15.6288 5.46719H14.0663V1.5625H15.6288V5.46719ZM21.6468 4.45749L20.5421 3.3528L17.4187 6.47624L18.5233 7.58093L21.6468 4.45749ZM5.04243 16.7862L8.19086 19.9456L19.5002 15.7878L9.25493 5.50572L5.04243 16.7862ZM12.2268 21.8268L14.7081 20.9143C15.1088 20.7667 15.3174 20.319 15.1729 19.9167L14.8971 19.1495L10.9487 20.6018L11.2213 21.3581C11.2932 21.5557 11.4362 21.7127 11.626 21.8018C11.8167 21.8893 12.0299 21.8987 12.2268 21.8268ZM5.93462 21.8698C5.98775 21.8698 6.01665 21.8409 6.02603 21.8315L6.94243 20.9104L4.07993 18.0378L3.16196 18.9581C3.11274 19.0089 3.11274 19.0901 3.16274 19.1409L5.844 21.8315L5.84439 21.8319C5.85415 21.8417 5.88223 21.8698 5.93462 21.8698ZM9.24556 3.9065C9.62681 3.9065 10.0135 4.04947 10.3182 4.35494L20.6463 14.7206C21.4362 15.5135 21.1362 16.862 20.0862 17.2417L16.3643 18.6104L16.6432 19.387C17.0776 20.5948 16.451 21.9378 15.2471 22.3807L12.7651 23.2932C12.5026 23.3901 12.2284 23.4385 11.9557 23.4385C11.6182 23.4385 11.2815 23.3643 10.9667 23.2167C10.3956 22.9518 9.96509 22.4792 9.75181 21.887L9.48306 21.1409L8.59946 21.4651L7.13071 22.9401C6.80024 23.2721 6.36743 23.4378 5.93462 23.4378C5.50259 23.4378 5.06899 23.2721 4.73931 22.9401L2.05728 20.2495C1.3979 19.587 1.3979 18.512 2.05728 17.8495L3.52759 16.3745L7.80649 4.91744C8.03931 4.26979 8.63618 3.9065 9.24556 3.9065ZM23.4375 10.9336H19.5328V9.37106H23.4375V10.9336Z" fill="white"/>
</svg>
