<svg width="24" height="24" viewBox="0 0 24 24" fill="none" xmlns="http://www.w3.org/2000/svg">
<path fill-rule="evenodd" clip-rule="evenodd" d="M14.2499 1.5C9.69369 1.5 5.99994 5.19375 5.99994 9.75C5.99994 10.047 6.01719 10.3387 6.04719 10.6275L6.16119 11.25H7.67394C7.56369 10.7662 7.49994 10.266 7.49994 9.75C7.49994 6.02775 10.5277 3 14.2499 3C17.9722 3 20.9999 6.02775 20.9999 9.75C20.9999 13.4715 17.9722 16.5 14.2499 16.5C14.1197 16.5 13.9927 16.4908 13.8652 16.4817L13.8652 16.4817L13.7962 16.4767L13.6094 17.9678C13.8217 17.9843 14.0339 18 14.2499 18C18.8062 18 22.4999 14.3062 22.4999 9.75C22.4999 5.19375 18.8062 1.5 14.2499 1.5ZM10.6757 17.25L11.0507 14.25H5.18198L5.72723 17.25H10.6757ZM1.50024 10.5H4.50024L4.90899 12.75H12.7502L12.0002 18.75H4.50024L4.49949 18.7455L3.25224 12H1.50024V10.5ZM5.62494 20.25C5.00319 20.25 4.49994 20.7533 4.49994 21.375C4.49994 21.9967 5.00319 22.5 5.62494 22.5C6.24669 22.5 6.74994 21.9967 6.74994 21.375C6.74994 20.7533 6.24669 20.25 5.62494 20.25ZM10.8749 20.25C10.2532 20.25 9.74994 20.7533 9.74994 21.375C9.74994 21.9967 10.2532 22.5 10.8749 22.5C11.4967 22.5 11.9999 21.9967 11.9999 21.375C11.9999 20.7533 11.4967 20.25 10.8749 20.25ZM12.7499 11.25V6H14.2499V9.75H18.7499V11.25H12.7499Z" fill="white"/>
</svg>
