<svg width="22" height="22" viewBox="0 0 22 22" fill="none" xmlns="http://www.w3.org/2000/svg">
<path fill-rule="evenodd" clip-rule="evenodd" d="M8.06644 14.5393L6.35525 3.13087C6.20194 2.11337 5.34462 1.375 4.31544 1.375H2.0625V2.75H4.31544C4.6585 2.75 4.9445 2.99544 4.99537 3.33506L6.70656 14.7434C6.85988 15.7609 7.71719 16.5 8.74638 16.5H19.25V15.125H8.74638C8.40331 15.125 8.11731 14.8789 8.06644 14.5393ZM6.875 19.25C6.875 18.491 7.491 17.875 8.25 17.875C9.009 17.875 9.625 18.491 9.625 19.25C9.625 20.009 9.009 20.625 8.25 20.625C7.491 20.625 6.875 20.009 6.875 19.25ZM16.5 19.25C16.5 18.491 17.116 17.875 17.875 17.875C18.634 17.875 19.25 18.491 19.25 19.25C19.25 20.009 18.634 20.625 17.875 20.625C17.116 20.625 16.5 20.009 16.5 19.25ZM9.23989 13.0625L7.79614 3.4375H19.9374L19.4328 10.5084C19.3296 11.9474 18.132 13.0625 16.6896 13.0625H9.23989Z" fill="white"/>
</svg>
