<svg width="14" height="14" viewBox="0 0 14 14" fill="none" xmlns="http://www.w3.org/2000/svg">
<path fill-rule="evenodd" clip-rule="evenodd" d="M5.6875 9.625C3.51619 9.625 1.75 7.85838 1.75 5.6875C1.75 3.51619 3.51619 1.75 5.6875 1.75C7.85838 1.75 9.625 3.51619 9.625 5.6875C9.625 7.85838 7.85838 9.625 5.6875 9.625ZM5.6875 0.875C3.02969 0.875 0.875 3.02969 0.875 5.6875C0.875 8.34531 3.02969 10.5 5.6875 10.5C8.34531 10.5 10.5 8.34531 10.5 5.6875C10.5 3.02969 8.34531 0.875 5.6875 0.875Z" fill="black"/>
<path fill-rule="evenodd" clip-rule="evenodd" d="M10.0019 9.38318C9.81161 9.60499 9.60511 9.81149 9.3833 10.0018L12.5066 13.1251L13.1252 12.5061L10.0019 9.38318Z" fill="black"/>
</svg>
