<svg width="14" height="14" viewBox="0 0 14 14" fill="none" xmlns="http://www.w3.org/2000/svg">
<path fill-rule="evenodd" clip-rule="evenodd" d="M1.75 7C1.75 9.89494 4.10506 12.25 7 12.25C9.89494 12.25 12.25 9.89494 12.25 7C12.25 4.10506 9.89494 1.75 7 1.75C4.10506 1.75 1.75 4.10506 1.75 7ZM0.875 7C0.875 3.61725 3.61725 0.875 7 0.875C10.3827 0.875 13.125 3.61725 13.125 7C13.125 10.3827 10.3827 13.125 7 13.125C3.61725 13.125 0.875 10.3827 0.875 7ZM6.56264 7.28824L9.89027 8.71449L10.2346 7.91037L7.43764 6.71162V3.06243H6.56264V7.28824Z" fill="#333333"/>
</svg>
