<svg width="42" height="42" viewBox="0 0 42 42" fill="none" xmlns="http://www.w3.org/2000/svg">
<rect width="42" height="42" rx="12" fill="#FEEB29"/>
<path fill-rule="evenodd" clip-rule="evenodd" d="M12.2972 10.223L20.1493 7.63184C20.682 7.45605 21.2571 7.45605 21.7898 7.63184L29.6419 10.223L29.0951 11.8801L21.2429 9.28887C21.0654 9.23027 20.8737 9.23027 20.6961 9.28887L12.844 11.8801C12.4864 11.9981 12.2449 12.3382 12.2449 12.7147V18.6212C12.2449 25.4264 19.2731 32.7551 20.9695 32.7551C22.666 32.7551 29.6941 25.3217 29.6941 18.6212V12.7135C29.6941 12.337 29.4526 11.9981 29.0951 11.8801L29.6419 10.223C30.7254 10.5806 31.4391 11.5956 31.4391 12.7135V18.6212C31.4391 22.5142 29.4338 26.4142 27.3771 29.23C26.3299 30.6638 25.2114 31.8966 24.2108 32.7903C23.713 33.2349 23.2134 33.6234 22.7404 33.9121C22.3433 34.1544 21.6941 34.5 20.9695 34.5C20.2515 34.5 19.6059 34.1619 19.2068 33.9213C18.7335 33.6361 18.2334 33.2517 17.7349 32.8109C16.7329 31.9251 15.613 30.7013 14.5644 29.2726C12.5026 26.4634 10.5 22.564 10.5 18.6212V12.7147C10.5 11.5994 11.2111 10.5814 12.2972 10.223Z" fill="#242424"/>
<path fill-rule="evenodd" clip-rule="evenodd" d="M21.4534 25.4831C23.3334 25.3427 24.972 24.3359 25.9712 22.8607C25.2726 23.2081 24.5033 23.4399 23.6899 23.5302C23.1064 24.3338 22.3415 25.0036 21.4534 25.4831ZM22.2329 23.5389C21.658 24.1201 20.9518 24.5773 20.1609 24.8653C19.1336 24.071 18.3993 22.9327 18.1413 21.6293C19.2083 22.6803 20.6382 23.3812 22.2329 23.5389ZM24.3972 22.29C25.3256 22.0434 26.1579 21.5699 26.8274 20.9346C26.9402 20.4749 27 19.9944 27 19.5C27 17.918 26.3878 16.479 25.3873 15.4071C24.8375 15.2314 24.2501 15.1363 23.64 15.1363C23.4229 15.1363 23.2087 15.1484 22.9981 15.1718C24.1869 16.3525 24.92 17.9701 24.92 19.7545C24.92 20.6536 24.7339 21.5102 24.3972 22.29ZM21.6791 15.4801C22.9713 16.4793 23.8 18.0226 23.8 19.7545C23.8 20.7474 23.5276 21.6784 23.0517 22.4803C23.0079 22.4813 22.964 22.4818 22.92 22.4818C20.8676 22.4818 19.0731 21.4064 18.098 19.8026C18.3942 17.8097 19.7966 16.1656 21.6791 15.4801ZM21.8748 14.2736C21.3933 13.9667 20.8689 13.7184 20.3123 13.539C20.538 13.5132 20.7674 13.5 21 13.5C21.8945 13.5 22.7432 13.6957 23.5058 14.0467C22.9424 14.0574 22.396 14.1357 21.8748 14.2736ZM20.5237 14.7903C19.1337 15.5002 18.0303 16.6703 17.4268 18.0927C17.3567 17.7481 17.32 17.3919 17.32 17.0273C17.32 16.0344 17.5924 15.1034 18.0683 14.3015C18.1121 14.3005 18.156 14.3 18.2 14.3C19.029 14.3 19.8158 14.4754 20.5237 14.7903ZM15 19.5C15 22.0079 16.5387 24.1565 18.7236 25.0531C17.6046 23.884 16.92 22.3153 16.92 20.5909C16.92 20.4003 16.9284 20.2117 16.9447 20.0252C16.4688 19.127 16.2 18.1077 16.2 17.0273C16.2 16.5832 16.2454 16.1494 16.3319 15.7302C15.4989 16.7604 15 18.0719 15 19.5Z" fill="#242424"/>
</svg>
