<svg width="28" height="36" viewBox="0 0 28 36" fill="none" xmlns="http://www.w3.org/2000/svg">
<g id="Safeweb">
<path id="Vector 17 (Stroke)" fill-rule="evenodd" clip-rule="evenodd" d="M2.3962 3.63073L12.8657 0.175788C13.576 -0.0585959 14.3428 -0.0585961 15.053 0.175788L25.5225 3.63073L24.7934 5.8401L14.3239 2.38516C14.0872 2.30703 13.8316 2.30703 13.5948 2.38516L3.1253 5.8401C2.64859 5.99742 2.32656 6.4509 2.32656 6.9529V14.8283C2.32656 23.9019 11.6974 33.6734 13.9594 33.6734C16.2213 33.6734 25.5922 23.7623 25.5922 14.8283V6.95139C25.5922 6.44939 25.2702 5.99742 24.7934 5.8401L25.5225 3.63073C26.9673 4.10749 27.9187 5.46084 27.9187 6.95139V14.8283C27.9187 20.0189 25.245 25.2189 22.5028 28.9734C21.1065 30.885 19.6152 32.5288 18.2811 33.7204C17.6174 34.3132 16.9512 34.8313 16.3205 35.2161C15.7911 35.5392 14.9255 36 13.9594 36C13.002 36 12.1412 35.5491 11.6091 35.2285C10.978 34.8481 10.3112 34.3356 9.64652 33.7479C8.31049 32.5668 6.81731 30.935 5.41916 29.0301C2.6701 25.2846 0 20.0853 0 14.8283V6.9529C0 5.46586 0.948192 4.10858 2.3962 3.63073Z" fill="white"/>
<path id="Combined Shape" fill-rule="evenodd" clip-rule="evenodd" d="M14.6182 24.9243C17.3519 24.72 19.7346 23.256 21.1875 21.111C20.1717 21.6161 19.0531 21.9532 17.8703 22.0846C17.0218 23.253 15.9096 24.227 14.6182 24.9243ZM15.7517 22.0972C14.9156 22.9423 13.8888 23.6072 12.7388 24.026C11.245 22.8709 10.1772 21.2158 9.80212 19.3204C11.3536 20.8488 13.4328 21.8679 15.7517 22.0972ZM18.8988 20.2812C20.2487 19.9226 21.4589 19.2341 22.4325 18.3102C22.5965 17.6418 22.6835 16.9432 22.6835 16.2242C22.6835 13.9239 21.7932 11.8314 20.3384 10.2727C19.539 10.0172 18.6849 9.87899 17.7977 9.87899C17.4821 9.87899 17.1706 9.89649 16.8643 9.93053C18.593 11.6474 19.659 13.9996 19.659 16.5944C19.659 17.9016 19.3884 19.1473 18.8988 20.2812ZM14.9463 10.3789C16.8254 11.8318 18.0304 14.076 18.0304 16.5944C18.0304 18.0381 17.6343 19.3918 16.9423 20.5579C16.8786 20.5594 16.8148 20.5601 16.7508 20.5601C13.7664 20.5601 11.157 18.9964 9.73915 16.6642C10.1698 13.7664 12.209 11.3757 14.9463 10.3789ZM15.2309 8.62446C14.5308 8.17821 13.7683 7.81712 12.9589 7.5563C13.287 7.51886 13.6207 7.49962 13.9589 7.49962C15.2595 7.49962 16.4937 7.78423 17.6025 8.29456C16.7833 8.3102 15.9888 8.42403 15.2309 8.62446ZM13.2663 9.37581C11.245 10.4081 9.64061 12.1095 8.76306 14.1779C8.6612 13.6768 8.6078 13.1588 8.6078 12.6286C8.6078 11.1849 9.00385 9.83118 9.69591 8.66505C9.75956 8.66362 9.8234 8.6629 9.88741 8.6629C11.0928 8.6629 12.237 8.918 13.2663 9.37581ZM5.23428 16.2242C5.23428 19.871 7.47173 22.9952 10.6487 24.299C9.02167 22.599 8.02615 20.3179 8.02615 17.8105C8.02615 17.5334 8.03831 17.259 8.06213 16.988C7.37002 15.6819 6.9792 14.1997 6.9792 12.6286C6.9792 11.9829 7.04523 11.3522 7.17106 10.7425C5.95975 12.2406 5.23428 14.1477 5.23428 16.2242Z" fill="white"/>
</g>
</svg>
