<svg width="30" height="30" viewBox="0 0 30 30" fill="none" xmlns="http://www.w3.org/2000/svg">
<path fill-rule="evenodd" clip-rule="evenodd" d="M12.6472 19.9705C16.6662 19.9705 19.9241 16.7125 19.9241 12.6936C19.9241 8.67466 16.6662 5.41667 12.6472 5.41667C8.62827 5.41667 5.37028 8.67466 5.37028 12.6936C5.37028 16.7125 8.62827 19.9705 12.6472 19.9705ZM12.6472 21.6372C17.5866 21.6372 21.5908 17.633 21.5908 12.6936C21.5908 7.75419 17.5866 3.75 12.6472 3.75C7.7078 3.75 3.70361 7.75419 3.70361 12.6936C3.70361 17.633 7.7078 21.6372 12.6472 21.6372Z" fill="#242424"/>
<path fill-rule="evenodd" clip-rule="evenodd" d="M18.508 18.2996C18.8334 17.9742 19.3611 17.9742 19.6865 18.2996L25.5893 24.2024C25.9147 24.5278 25.9147 25.0555 25.5893 25.3809C25.2638 25.7063 24.7362 25.7063 24.4108 25.3809L18.508 19.4781C18.1826 19.1527 18.1826 18.6251 18.508 18.2996Z" fill="#242424"/>
<path d="M14.8726 10.3281L12.5572 9.58763C12.5529 9.58593 12.5477 9.58763 12.5425 9.58678C12.5277 9.58337 12.5139 9.58337 12.4991 9.58337C12.4844 9.58337 12.4705 9.58337 12.4558 9.58678C12.4515 9.58763 12.4463 9.58678 12.4419 9.58763L10.1274 10.3281C10.0511 10.3528 10 10.4218 10 10.5011V11.6539C10 13.3504 10.922 14.9421 12.4055 15.8078L12.4073 15.8087L12.4081 15.8095C12.4367 15.8257 12.4679 15.8334 12.5 15.8334C12.5312 15.8334 12.5633 15.8257 12.5918 15.8095L12.5927 15.8087L12.5944 15.8078C14.078 14.9421 15 13.3504 15 11.6539V10.5011C15.0009 10.4218 14.9489 10.3519 14.8726 10.3281Z" fill="#242424" stroke="#242424" stroke-width="0.75" stroke-miterlimit="10"/>
</svg>
