<svg width="20" height="20" viewBox="0 0 20 20" fill="none" xmlns="http://www.w3.org/2000/svg">
<path fill-rule="evenodd" clip-rule="evenodd" d="M6.48478 6.00565C6.48478 4.06099 8.06123 2.48453 10.0059 2.48453C11.9505 2.48453 13.527 4.06099 13.527 6.00565C13.527 7.9503 11.9505 9.52676 10.0059 9.52676V10.769C10.0059 9.52676 10.0053 9.52676 10.0047 9.52676L10.0034 9.52676L10.0009 9.52677L9.99567 9.5268L9.98442 9.52694C9.97658 9.52706 9.96805 9.52727 9.95887 9.52757C9.94055 9.52818 9.91942 9.52921 9.89584 9.5309C9.8491 9.53424 9.79044 9.54031 9.72332 9.5515C9.59495 9.57289 9.40481 9.618 9.19963 9.72059C8.98958 9.82561 8.74175 10.0027 8.5492 10.2915C8.35147 10.5881 8.26222 10.9277 8.26222 11.2704V14.0282C8.26222 14.7143 8.8184 15.2704 9.50448 15.2704C10.1906 15.2704 10.7467 14.7143 10.7467 14.0282V11.966C13.714 11.601 16.0115 9.07163 16.0115 6.00565C16.0115 2.68882 13.3227 0 10.0059 0C6.68906 0 4.00024 2.68882 4.00024 6.00565C4.00024 6.69173 4.55643 7.24791 5.24251 7.24791C5.92859 7.24791 6.48478 6.69173 6.48478 6.00565ZM9.49727 20C10.1834 20 10.7395 19.4438 10.7395 18.7577C10.7395 18.0716 10.1834 17.5155 9.49727 17.5155C8.81119 17.5155 8.25501 18.0716 8.25501 18.7577C8.25501 19.4438 8.81119 20 9.49727 20Z" fill="white"/>
</svg>
