<svg width="18" height="18" viewBox="0 0 18 18" fill="none" xmlns="http://www.w3.org/2000/svg">
<path fill-rule="evenodd" clip-rule="evenodd" d="M0.503932 0.503932C-0.167977 1.17584 -0.167978 2.26522 0.503931 2.93713L6.56914 9.00234L0.629589 14.9419C-0.0423198 15.6138 -0.0423198 16.7032 0.629589 17.3751C1.3015 18.047 2.39088 18.047 3.06279 17.3751L9.00234 11.4355L14.9372 17.3704C15.6091 18.0423 16.6985 18.0423 17.3704 17.3704C18.0423 16.6985 18.0423 15.6091 17.3704 14.9372L11.4355 9.00234L17.4961 2.9418C18.168 2.26989 18.168 1.18051 17.4961 0.508604C16.8242 -0.163305 15.7348 -0.163306 15.0629 0.508603L9.00234 6.56914L2.93713 0.503932C2.26522 -0.167977 1.17584 -0.167977 0.503932 0.503932Z" fill="white"/>
</svg>
